<svg xmlns="http://www.w3.org/2000/svg" width="240" height="240" viewBox="0 0 240 240"><defs><style>.a,.b{opacity:0;}.b{fill:#fff;}.c{fill:#d32f2f;}.d{fill:#f16c6a;}</style></defs><g transform="translate(-68 -238)"><rect class="a" width="240" height="240" transform="translate(68 238)"/><g transform="translate(92 266)"><rect class="b" width="192" height="192" transform="translate(0 0)"/><path class="c" d="M66.772,2.178l-51.7,21.54A18,18,0,0,0,4,40.333v42c0,72,84,72,60,108,0,0,84-36,84-108v-42a18,18,0,0,0-11.076-16.614l-51.7-21.54A24,24,0,0,0,66.772,2.178Z" transform="translate(20 1.668)"/><path class="d" d="M80.5,91.083h-48a6,6,0,0,1-6-6h0a6,6,0,0,1,6-6h48a6,6,0,0,1,6,6h0A6,6,0,0,1,80.5,91.083Zm36-30h-84a6,6,0,0,1-6-6h0a6,6,0,0,1,6-6h84a6,6,0,0,1,6,6h0A6,6,0,0,1,116.5,61.083Z" transform="translate(21.5 4.917)"/></g></g></svg>